# xmcd
#
# Track frame offsets:
#	150
#	16668
#	28004
#	49162
#	63324
#	73921
#	85653
#	100313
#	117101
#	135958
#	155509
#	174533
#	191964
#	204687
#
# Disc length: 2995 seconds
#
# Revision: 0
# Processed by: cddbd v1.5.1PL0 Copyright (c) Steve Scherf et al.
# Submitted via: EasyCDDAExtractor 8.0.1.1
#
DISCID=bd0bb10e
DTITLE=Courant d'Eire - Roulez les airs !
DYEAR=2003
DGENRE=Country
TTITLE0=Bonnie Mulligan
TTITLE1=Raggle Taggle Gispy
TTITLE2=Les Bressans
TTITLE3=Bridies Hornpipe - Toss The Feathers
TTITLE4=The Leggae Jig
TTITLE5=Theme For The Green Lands
TTITLE6=Le veau
TTITLE7=The Maid Behind The Bar - King Of The Fairies
TTITLE8=Vercingétorix
TTITLE9=The Mighty Sparrow
TTITLE10=Prosper
TTITLE11=Miss Cambell - free And Easy - Joe Cooley's Reel
TTITLE12=Mason's Apron
TTITLE13=Dadi
EXTD=
EXTT0=
EXTT1=
EXTT2=
EXTT3=
EXTT4=
EXTT5=
EXTT6=
EXTT7=
EXTT8=
EXTT9=
EXTT10=
EXTT11=
EXTT12=
EXTT13=
PLAYORDER=
